<svg width="1280" height="174" viewBox="0 0 1280 174" fill="none" xmlns="http://www.w3.org/2000/svg">
<g opacity="0.7" filter="url(#filter0_b_426_2451)">
<path d="M87.8428 264.716C278.398 207.305 745.993 96.8804 1091.92 114.47C1437.86 132.06 1487.69 278.153 1469.37 349L87.8428 264.716Z" fill="#C4C4C4" fill-opacity="0.15"/>
</g>
<g opacity="0.7" filter="url(#filter1_b_426_2451)">
<path d="M-341.823 196.006C-151.268 138.595 316.327 28.1704 662.259 45.7602C1008.19 63.3499 1058.03 209.443 1039.71 280.29L-341.823 196.006Z" fill="#C4C4C4" fill-opacity="0.15"/>
</g>
<g opacity="0.7" filter="url(#filter2_b_426_2451)">
<path d="M108.638 237.528C295.31 168.528 755.244 29.6089 1101.6 25.9309C1447.96 22.2529 1506.67 165.011 1492.73 236.85L108.638 237.528Z" fill="#C4C4C4" fill-opacity="0.15"/>
</g>
<defs>
<filter id="filter0_b_426_2451" x="84.1782" y="108.929" width="1392.13" height="243.735" filterUnits="userSpaceOnUse" color-interpolation-filters="sRGB">
<feFlood flood-opacity="0" result="BackgroundImageFix"/>
<feGaussianBlur in="BackgroundImageFix" stdDeviation="1.83227"/>
<feComposite in2="SourceAlpha" operator="in" result="effect1_backgroundBlur_426_2451"/>
<feBlend mode="normal" in="SourceGraphic" in2="effect1_backgroundBlur_426_2451" result="shape"/>
</filter>
<filter id="filter1_b_426_2451" x="-345.488" y="40.2195" width="1392.13" height="243.735" filterUnits="userSpaceOnUse" color-interpolation-filters="sRGB">
<feFlood flood-opacity="0" result="BackgroundImageFix"/>
<feGaussianBlur in="BackgroundImageFix" stdDeviation="1.83227"/>
<feComposite in2="SourceAlpha" operator="in" result="effect1_backgroundBlur_426_2451"/>
<feBlend mode="normal" in="SourceGraphic" in2="effect1_backgroundBlur_426_2451" result="shape"/>
</filter>
<filter id="filter2_b_426_2451" x="104.973" y="22.1966" width="1393.27" height="218.996" filterUnits="userSpaceOnUse" color-interpolation-filters="sRGB">
<feFlood flood-opacity="0" result="BackgroundImageFix"/>
<feGaussianBlur in="BackgroundImageFix" stdDeviation="1.83227"/>
<feComposite in2="SourceAlpha" operator="in" result="effect1_backgroundBlur_426_2451"/>
<feBlend mode="normal" in="SourceGraphic" in2="effect1_backgroundBlur_426_2451" result="shape"/>
</filter>
</defs>
</svg>
