<svg width="43" height="43" viewBox="0 0 43 43" fill="none" xmlns="http://www.w3.org/2000/svg">
<g clip-path="url(#clip0_426_2474)">
<path d="M21.8308 13.0103C24.2273 13.0103 24.5263 13.0191 25.4666 13.0632C26.406 13.1073 27.0455 13.2546 27.6082 13.4733C28.1904 13.6974 28.6808 14.0008 29.1712 14.4903C29.6197 14.9313 29.9668 15.4646 30.1882 16.0533C30.4061 16.6152 30.5543 17.2556 30.5984 18.195C30.6398 19.1352 30.6513 19.4342 30.6513 21.8308C30.6513 24.2273 30.6425 24.5263 30.5984 25.4666C30.5543 26.406 30.4061 27.0455 30.1882 27.6082C29.9674 28.1972 29.6203 28.7307 29.1712 29.1712C28.7301 29.6196 28.1968 29.9666 27.6082 30.1882C27.0463 30.4061 26.406 30.5543 25.4666 30.5984C24.5263 30.6398 24.2273 30.6513 21.8308 30.6513C19.4342 30.6513 19.1352 30.6425 18.195 30.5984C17.2556 30.5543 16.6161 30.4061 16.0533 30.1882C15.4644 29.9672 14.9309 29.6201 14.4903 29.1712C14.0417 28.7303 13.6947 28.1969 13.4733 27.6082C13.2546 27.0463 13.1073 26.406 13.0632 25.4666C13.0217 24.5263 13.0103 24.2273 13.0103 21.8308C13.0103 19.4342 13.0191 19.1352 13.0632 18.195C13.1073 17.2547 13.2546 16.6161 13.4733 16.0533C13.6941 15.4643 14.0412 14.9308 14.4903 14.4903C14.9311 14.0416 15.4645 13.6945 16.0533 13.4733C16.6161 13.2546 17.2547 13.1073 18.195 13.0632C19.1352 13.0217 19.4342 13.0103 21.8308 13.0103ZM21.8308 17.4205C20.6611 17.4205 19.5393 17.8852 18.7122 18.7122C17.8852 19.5393 17.4205 20.6611 17.4205 21.8308C17.4205 23.0004 17.8852 24.1222 18.7122 24.9493C19.5393 25.7764 20.6611 26.241 21.8308 26.241C23.0004 26.241 24.1222 25.7764 24.9493 24.9493C25.7764 24.1222 26.241 23.0004 26.241 21.8308C26.241 20.6611 25.7764 19.5393 24.9493 18.7122C24.1222 17.8852 23.0004 17.4205 21.8308 17.4205ZM27.5641 17.2C27.5641 16.9076 27.4479 16.6271 27.2412 16.4204C27.0344 16.2136 26.754 16.0974 26.4615 16.0974C26.1691 16.0974 25.8887 16.2136 25.6819 16.4204C25.4751 16.6271 25.359 16.9076 25.359 17.2C25.359 17.4924 25.4751 17.7729 25.6819 17.9796C25.8887 18.1864 26.1691 18.3026 26.4615 18.3026C26.754 18.3026 27.0344 18.1864 27.2412 17.9796C27.4479 17.7729 27.5641 17.4924 27.5641 17.2ZM21.8308 19.1846C22.5326 19.1846 23.2056 19.4634 23.7019 19.9597C24.1981 20.4559 24.4769 21.129 24.4769 21.8308C24.4769 22.5326 24.1981 23.2056 23.7019 23.7019C23.2056 24.1981 22.5326 24.4769 21.8308 24.4769C21.129 24.4769 20.4559 24.1981 19.9597 23.7019C19.4634 23.2056 19.1846 22.5326 19.1846 21.8308C19.1846 21.129 19.4634 20.4559 19.9597 19.9597C20.4559 19.4634 21.129 19.1846 21.8308 19.1846Z" fill="white"/>
</g>
<rect opacity="0.1" width="43" height="43" rx="13.2308" fill="white"/>
<defs>
<clipPath id="clip0_426_2474">
<rect width="21.1692" height="21.1692" fill="white" transform="translate(11.2461 11.2461)"/>
</clipPath>
</defs>
</svg>
