<svg width="44" height="43" viewBox="0 0 44 43" fill="none" xmlns="http://www.w3.org/2000/svg">
<g clip-path="url(#clip0_426_2476)">
<path d="M18.0917 15.6566C18.0914 16.1245 17.9054 16.5731 17.5744 16.9037C17.2434 17.2344 16.7946 17.42 16.3267 17.4198C15.8588 17.4196 15.4102 17.2335 15.0795 16.9025C14.7489 16.5715 14.5632 16.1227 14.5635 15.6548C14.5637 15.187 14.7498 14.7383 15.0808 14.4077C15.4118 14.077 15.8606 13.8914 16.3285 13.8916C16.7963 13.8918 17.2449 14.0779 17.5756 14.4089C17.9063 14.7399 18.0919 15.1887 18.0917 15.6566ZM18.1446 18.7261H14.6164V29.7694H18.1446V18.7261ZM23.7192 18.7261H20.2086V29.7694H23.6839V23.9743C23.6839 20.746 27.8913 20.4461 27.8913 23.9743V29.7694H31.3754V22.7747C31.3754 17.3325 25.1481 17.5354 23.6839 20.208L23.7192 18.7261Z" fill="white"/>
</g>
<rect opacity="0.1" x="0.724121" width="43" height="43" rx="13.2308" fill="white"/>
<defs>
<clipPath id="clip0_426_2476">
<rect width="21.1692" height="21.1692" fill="white" transform="translate(11.9702 11.2461)"/>
</clipPath>
</defs>
</svg>
