<svg width="96" height="96" viewBox="0 0 96 96" fill="none" xmlns="http://www.w3.org/2000/svg">
<path opacity="0.564" fill-rule="evenodd" clip-rule="evenodd" d="M40.9801 10.14C41.2233 10.1206 41.4633 10.1405 41.7001 10.2C41.5893 10.4458 41.6493 10.6658 41.8801 10.86C42.0133 10.6324 42.0332 10.4124 41.9401 10.2C42.5401 10.12 43.1401 10.12 43.7401 10.2C44.1933 10.9014 44.2734 10.9014 43.9801 10.2C44.1401 10.12 44.3001 10.12 44.4601 10.2C44.3841 10.6151 44.3041 11.0351 44.2201 11.46C44.0256 11.2051 43.8056 10.9651 43.5601 10.74C43.4709 10.9729 43.491 11.1929 43.6201 11.4C43.2201 11.48 42.8201 11.48 42.4201 11.4C42.5745 11.025 42.5745 10.6451 42.4201 10.26C42.1368 10.6665 41.9168 11.1065 41.7601 11.58C41.4666 11.1127 41.2067 10.6327 40.9801 10.14ZM43.0201 10.26C43.1719 10.3817 43.2518 10.5617 43.2601 10.8C43.2201 10.98 43.1801 11.16 43.1401 11.34C43.022 10.9886 42.9821 10.6286 43.0201 10.26Z" fill="black"/>
<path opacity="0.565" fill-rule="evenodd" clip-rule="evenodd" d="M45.42 10.5C45.42 10.74 45.42 10.98 45.42 11.22C45.5665 11.1566 45.7064 11.0766 45.84 10.98C45.9476 11.3436 46.1276 11.4436 46.38 11.28C45.5022 10.5321 45.6222 10.1921 46.74 10.26C46.7721 10.4519 46.732 10.6119 46.62 10.74C46.7721 11.0004 46.7721 11.2604 46.62 11.52C46.3369 11.5449 46.0768 11.5649 45.84 11.58C45.7431 11.1061 45.6831 11.1061 45.66 11.58C45.2508 11.5851 44.8508 11.5251 44.46 11.4C44.7321 11.0315 44.7721 10.6315 44.58 10.2C44.9378 10.1402 45.2978 10.1202 45.66 10.14C45.6788 10.3048 45.6588 10.4648 45.6 10.62C45.554 10.5533 45.494 10.5133 45.42 10.5ZM45.42 10.5C45.305 10.5543 45.2049 10.6343 45.12 10.74C45.062 10.6262 45.0421 10.5062 45.06 10.38C45.2149 10.3515 45.3349 10.3915 45.42 10.5ZM46.62 10.74C46.4292 10.7246 46.2692 10.6446 46.14 10.5C46.3844 10.3678 46.5444 10.4478 46.62 10.74ZM45.42 11.22C45.3349 11.3285 45.2149 11.3685 45.06 11.34C45.0421 11.2138 45.062 11.0938 45.12 10.98C45.17 11.1307 45.27 11.2107 45.42 11.22Z" fill="black"/>
<path opacity="0.579" fill-rule="evenodd" clip-rule="evenodd" d="M39.6601 10.26C39.9521 10.6618 40.2321 11.0818 40.5001 11.52C40.2601 11.6 40.0201 11.6 39.7801 11.52C39.9029 11.356 39.8429 11.2559 39.6001 11.22C39.3809 11.2813 39.3609 11.3813 39.5401 11.52C39.3748 11.6689 39.2149 11.6889 39.0601 11.58C39.2831 11.1507 39.4832 10.7107 39.6601 10.26Z" fill="black"/>
<path opacity="0.623" fill-rule="evenodd" clip-rule="evenodd" d="M37.98 10.38C38.34 10.38 38.7 10.38 39.06 10.38C39.0889 10.7999 38.989 10.8399 38.76 10.5C38.6528 10.9099 38.7128 11.2899 38.94 11.64C38.2999 11.8511 38.0999 11.6711 38.34 11.1C38.3442 10.6506 38.2242 10.5706 37.98 10.86C37.8449 10.703 37.8449 10.543 37.98 10.38Z" fill="black"/>
<path opacity="0.604" fill-rule="evenodd" clip-rule="evenodd" d="M37.6201 10.98C37.9863 11.206 38.0263 11.4659 37.7401 11.76C37.5082 11.7901 37.2882 11.8501 37.0801 11.94C37.0474 11.7479 36.9874 11.5679 36.9001 11.4C36.9714 11.3443 37.0515 11.3243 37.1401 11.34C36.7063 10.6511 36.9064 10.3711 37.7401 10.5C37.7723 10.6919 37.7322 10.8519 37.6201 10.98ZM37.6201 10.98C37.4495 10.955 37.2895 10.895 37.1401 10.8C37.4046 10.5517 37.5646 10.6117 37.6201 10.98ZM37.1401 11.34C37.3617 11.3067 37.5217 11.3867 37.6201 11.58C37.3402 11.753 37.1802 11.673 37.1401 11.34Z" fill="black"/>
<path opacity="0.581" fill-rule="evenodd" clip-rule="evenodd" d="M35.94 10.62C36.0286 10.6043 36.1087 10.6243 36.18 10.68C36.0006 11.0839 36.0405 11.4639 36.3 11.82C36.4828 11.6967 36.5629 11.5167 36.54 11.28C36.5575 11.0359 36.4776 10.8359 36.3 10.68C36.4599 10.6 36.62 10.6 36.78 10.68C36.6337 10.9539 36.6337 11.2339 36.78 11.52C36.5658 12.0784 36.2257 12.1784 35.76 11.82C35.7423 11.4515 35.6424 11.1115 35.46 10.8C35.6469 10.7748 35.8069 10.7148 35.94 10.62Z" fill="black"/>
<path opacity="0.607" fill-rule="evenodd" clip-rule="evenodd" d="M35.0999 10.74C35.2378 10.7749 35.3179 10.8749 35.3399 11.04C35.3199 11.14 35.3 11.24 35.2799 11.34C35.0731 10.9524 34.8331 10.9124 34.5599 11.22C34.3892 11.7857 34.5692 12.0257 35.0999 11.94C35.0427 11.8227 34.9628 11.7227 34.8599 11.64C35.1034 11.5583 35.3434 11.5183 35.5799 11.52C35.5628 12.0172 35.3029 12.2771 34.7999 12.3C34.1834 12.1229 33.9833 11.7228 34.1999 11.1C34.4975 10.9426 34.7975 10.8226 35.0999 10.74Z" fill="black"/>
<path opacity="0.51" fill-rule="evenodd" clip-rule="evenodd" d="M40.86 10.86C41.0458 10.8986 41.1258 11.0186 41.1 11.22C40.8475 11.2559 40.6075 11.2159 40.38 11.1C40.5539 11.0194 40.7138 10.9394 40.86 10.86Z" fill="black"/>
<path opacity="0.982" fill-rule="evenodd" clip-rule="evenodd" d="M82.4999 42.54C81.5619 42.659 80.6019 42.6991 79.6199 42.66C79.6199 44.0199 79.6199 45.38 79.6199 46.74C78.2599 46.74 76.8998 46.74 75.5398 46.74C75.5398 48.42 75.5398 50.1 75.5398 51.78C76.8998 51.78 78.2599 51.78 79.6199 51.78C79.6199 53.18 79.6199 54.5799 79.6199 55.98C81.3211 56.0195 83.0011 55.9795 84.6599 55.86C84.6599 54.5 84.6599 53.1399 84.6599 51.78C86.0599 51.78 87.4598 51.78 88.8599 51.78C88.8599 50.18 88.8599 48.5799 88.8599 46.98C87.6261 46.7429 86.3461 46.6628 85.0199 46.74C84.8087 45.4227 84.6887 44.0628 84.6599 42.66C84.2743 42.6972 83.9143 42.6572 83.5798 42.54C86.4407 38.2981 88.7007 33.7381 90.3599 28.86C91.5599 25.5 92.7598 22.14 93.9599 18.78C94.0998 18.4196 94.2998 18.0996 94.5599 17.82C96.131 36.4617 91.1709 53.1017 79.6799 67.74C76.2371 72.1431 72.3771 76.1631 68.0999 79.8C57.1028 87.74 45.0229 89.94 31.8598 86.4C22.3848 83.3234 14.9247 77.6234 9.47985 69.3C4.01449 59.8823 2.61449 49.8822 5.27985 39.3C8.9189 27.3409 16.4589 18.8408 27.8998 13.8C29.69 13.043 31.53 12.483 33.4198 12.12C26.8176 14.3292 21.3576 18.1491 17.0398 23.58C10.595 32.5704 9.11501 42.3303 12.5998 52.86C15.8425 61.2039 21.5425 67.2239 29.6999 70.92C40.9377 75.507 51.6177 74.4669 61.7398 67.8C72.3593 59.775 76.6193 49.155 74.5199 35.94C71.7829 24.8455 65.1229 17.1456 54.5399 12.84C52.0788 11.9547 49.5588 11.3147 46.9799 10.92C55.842 11.7326 63.642 15.0126 70.3799 20.76C76.4077 26.3563 80.3877 33.1763 82.3199 41.22C82.4322 41.6537 82.4922 42.0936 82.4999 42.54Z" fill="#35519A"/>
<path opacity="0.969" fill-rule="evenodd" clip-rule="evenodd" d="M38.8199 13.38C39.2219 13.3602 39.6219 13.3802 40.0199 13.44C40.347 13.6425 40.687 13.8225 41.0399 13.98C41.5716 14.9028 41.6716 15.8628 41.3399 16.86C41.3529 16.973 41.3928 17.073 41.4599 17.16C42.8756 16.9916 43.9955 17.4716 44.8199 18.6C45.3311 18.7569 45.831 18.9369 46.3199 19.14C46.9383 17.7212 47.9982 17.1413 49.4999 17.4C49.6938 17.4738 49.8538 17.5938 49.9799 17.76C51.2348 18.0716 52.4748 18.4316 53.6999 18.84C54.4138 18.9687 55.1338 19.0488 55.8599 19.08C56.0199 19.16 56.18 19.2399 56.3399 19.32C56.8707 20.4012 57.4508 21.4613 58.0799 22.5C58.5124 23.4853 58.9124 24.4853 59.2799 25.5C60.3855 26.3521 60.8254 27.4721 60.5999 28.86C61.4462 29.4312 61.9262 30.2312 62.0399 31.26C62.7377 31.8885 63.4577 32.4885 64.1999 33.06C64.5519 33.5239 64.7718 34.0439 64.8599 34.62C64.949 34.7144 65.0489 34.7943 65.1599 34.86C66.2013 34.6025 67.2612 34.4225 68.3399 34.32C68.9734 33.8759 69.6533 33.7958 70.3799 34.08C70.524 34.1883 70.6241 34.3283 70.6799 34.5C70.726 35.469 70.5261 36.389 70.0799 37.26C69.541 38.4181 68.941 39.5382 68.2799 40.62C67.1958 41.6709 66.0558 42.651 64.8599 43.56C63.9496 44.4698 63.1296 45.4497 62.3999 46.5C61.9744 47.5448 61.8945 48.6248 62.1599 49.74C62.4603 50.1002 62.7003 50.5002 62.8799 50.94C63.0093 52.2183 63.0492 53.4983 62.9999 54.78C62.9129 55.0739 62.7929 55.3539 62.6399 55.62C61.3571 56.4815 60.1172 57.4015 58.9199 58.38C59.0631 59.1434 59.1632 59.9234 59.2199 60.72C59.2883 61.5156 59.0082 62.1555 58.3799 62.64C58.0899 62.8351 57.7899 63.0151 57.4799 63.18C57.3513 63.7358 57.2313 64.2959 57.1199 64.86C56.4399 65.9799 55.76 67.1 55.0799 68.22C53.661 69.8103 51.901 70.5703 49.7999 70.5C48.9214 70.6346 48.0614 70.8347 47.2199 71.1C46.2023 71.0225 45.5423 70.5025 45.2399 69.54C45.2 69.06 45.1599 68.58 45.1199 68.1C44.7072 67.407 44.3472 66.687 44.0399 65.94C43.5891 65.5697 43.2291 65.1297 42.9599 64.62C42.6825 63.1103 42.4824 61.5902 42.3599 60.06C41.7394 59.1393 41.1794 58.1793 40.6799 57.18C40.4018 56.4831 40.3218 55.7631 40.4399 55.02C40.7783 53.8034 41.2782 52.6634 41.9399 51.6C41.3734 50.9556 41.1934 50.2155 41.3999 49.38C40.9599 48.4599 40.52 47.54 40.0799 46.62C39.7556 46.2554 39.3956 45.9354 38.9999 45.66C38.663 45.1333 38.483 44.5532 38.4599 43.92C38.6544 43.0224 38.7945 42.1224 38.8799 41.22C38.5785 40.9566 38.2385 40.9166 37.8599 41.1C37.325 41.0162 36.805 40.8762 36.2999 40.68C36.0016 40.2618 35.6616 39.8817 35.2799 39.54C34.1534 39.6131 33.0934 39.9131 32.0999 40.44C30.86 40.4799 29.6199 40.52 28.3799 40.56C27.637 40.9038 26.877 40.9439 26.0999 40.68C25.0406 39.9302 23.9606 39.2102 22.8599 38.52C22.5718 38.0972 22.3518 37.6373 22.1999 37.14C21.7119 36.7125 21.2919 36.2325 20.9399 35.7C19.8684 35.3765 19.4684 34.6764 19.7399 33.6C19.2414 32.918 19.2615 32.258 19.7999 31.62C19.8347 31.0053 19.9347 30.4053 20.0999 29.82C20.1094 29.1879 19.9294 28.6279 19.5599 28.14C19.4799 27.78 19.4799 27.42 19.5599 27.06C20.0072 26.0454 20.4872 25.0454 20.9999 24.06C21.5664 23.3735 22.0864 22.6535 22.5599 21.9C23.2245 21.405 23.9244 20.9649 24.6599 20.58C24.8289 19.7439 24.9689 18.9039 25.0799 18.06C25.7248 17.5967 26.3248 17.0767 26.8799 16.5C27.1199 16.02 27.3599 15.54 27.5999 15.06C28.32 14.4423 29.0601 14.4224 29.8199 15C30.3399 15.08 30.86 15.08 31.3799 15C32.1206 14.5097 32.9206 14.1497 33.7799 13.92C35.2949 13.7558 36.815 13.6358 38.3399 13.56C38.5269 13.5348 38.6868 13.4748 38.8199 13.38Z" fill="#DD252B"/>
<path fill-rule="evenodd" clip-rule="evenodd" d="M39.0601 14.94C39.5005 14.9192 39.8005 15.1192 39.9601 15.54C39.8101 16.1634 39.7701 16.8034 39.8401 17.46C40.0169 18.1169 40.4369 18.5369 41.1001 18.72C41.75 18.7391 42.3901 18.8191 43.0201 18.96C43.2196 19.2335 43.4197 19.5136 43.6201 19.8C44.3401 20.08 45.0601 20.36 45.7801 20.64C46.9862 21.0468 47.7262 20.6268 48.0001 19.38C48.5031 18.7742 49.0431 18.7543 49.6201 19.32C50.9038 19.6544 52.1839 20.0144 53.4601 20.4C54.0943 20.5231 54.7342 20.6032 55.3801 20.64C56.2989 22.5025 57.1588 24.4025 57.9601 26.34C58.2355 26.7356 58.5555 27.0956 58.9201 27.42C58.6677 28.7938 59.1077 29.8738 60.2401 30.66C60.3394 31.2587 60.5393 31.8187 60.8401 32.34C61.6352 32.9348 62.3953 33.5749 63.1201 34.26C63.2655 35.4854 63.9455 36.2054 65.1601 36.42C66.404 36.099 67.664 35.919 68.9401 35.88C68.5282 36.8836 68.0683 37.8636 67.5601 38.82C67.2707 38.8967 66.9707 38.9368 66.6601 38.94C63.6207 38.826 60.5807 38.7259 57.5401 38.64C57.0249 37.7497 56.5249 36.8497 56.0401 35.94C55.7924 35.8091 55.5323 35.789 55.2601 35.88C54.6453 38.9142 53.9853 41.9342 53.2801 44.94C52.6916 39.1349 52.0715 33.3349 51.4201 27.54C51.1401 27.54 50.86 27.54 50.5801 27.54C50.018 32.1978 49.3979 36.8378 48.7201 41.46C48.2799 39.0186 47.8399 36.5786 47.4001 34.14C47.128 33.9678 46.888 34.0078 46.6801 34.26C46.0472 35.7218 45.3472 37.1419 44.5801 38.52C42.0371 38.6126 39.4972 38.7127 36.9601 38.82C36.7066 38.687 36.4865 38.507 36.3001 38.28C35.9815 38.1071 35.6415 38.0071 35.2801 37.98C33.9959 38.0374 32.7759 38.3374 31.6201 38.88C30.46 38.92 29.3001 38.96 28.1401 39C27.6297 39.2952 27.1096 39.3352 26.5801 39.12C25.7305 38.5252 24.8704 37.9452 24.0001 37.38C23.8233 36.8665 23.5833 36.3865 23.2801 35.94C22.8094 35.5499 22.4295 35.0899 22.1401 34.56C21.9157 34.3961 21.6757 34.256 21.4201 34.14C21.3477 33.6257 21.2277 33.1258 21.0601 32.64C21.8139 30.9158 21.8539 29.1758 21.1801 27.42C21.8114 25.6958 22.7313 24.1559 23.9401 22.8C24.7531 22.5041 25.453 22.044 26.0401 21.42C26.3773 20.6165 26.5373 19.7765 26.5201 18.9C27.5833 18.2772 28.3432 17.3971 28.8001 16.26C29.1016 16.5508 29.4616 16.7107 29.8801 16.74C30.4187 16.6681 30.9587 16.6081 31.5001 16.56C32.2952 16.2026 33.0952 15.8426 33.9001 15.48C35.6392 15.3002 37.3593 15.1202 39.0601 14.94Z" fill="#35519A"/>
<path opacity="0.979" fill-rule="evenodd" clip-rule="evenodd" d="M83.1002 18.54C86.833 18.5737 88.9131 20.4337 89.3402 24.12C89.28 26.4594 88.2 28.1394 86.1002 29.16C83.8671 30.0123 81.787 29.7324 79.8602 28.32C77.9828 26.4425 77.5227 24.2624 78.4802 21.78C79.4922 19.9442 81.0322 18.8642 83.1002 18.54Z" fill="#35519A"/>
<path fill-rule="evenodd" clip-rule="evenodd" d="M50.9399 31.86C51.4791 37.0306 52.0391 42.2106 52.6199 47.4C53.0111 47.4941 53.3912 47.4741 53.7599 47.34C54.4067 44.2054 55.1068 41.0854 55.8599 37.98C56.1637 38.446 56.4836 38.9061 56.8199 39.36C60.3391 39.2613 63.8591 39.1812 67.3799 39.12C66.5663 40.1656 65.6063 41.0457 64.4999 41.76C63.3518 42.8278 62.2918 43.9678 61.3199 45.18C60.8971 46.0536 60.5571 46.9536 60.2999 47.88C60.482 48.5572 60.5821 49.2571 60.5999 49.98C60.7467 50.4738 60.9867 50.9139 61.3199 51.3C61.486 52.3757 61.526 53.4557 61.4399 54.54C60.0921 55.4077 58.8121 56.3677 57.5999 57.42C57.3791 57.6817 57.2391 57.9817 57.1799 58.32C57.6061 59.2582 57.746 60.2381 57.5999 61.26C57.0004 61.5003 56.4803 61.8603 56.0399 62.34C55.8939 62.9713 55.7739 63.6113 55.6799 64.26C55.0723 65.1484 54.5123 66.0684 53.9999 67.02C52.6982 68.6015 51.0382 69.2615 49.0199 69C48.3333 69.1818 47.6533 69.3419 46.9799 69.48C46.9199 69.42 46.8599 69.36 46.7999 69.3C46.7873 68.5608 46.6673 67.8408 46.4399 67.14C46.0229 66.5059 45.7029 65.8259 45.4799 65.1C45.0755 64.7358 44.7155 64.3359 44.3999 63.9C44.1995 62.5015 44.0396 61.1015 43.9199 59.7C43.4 58.8201 42.8799 57.94 42.3599 57.06C42.1672 56.6554 42.0273 56.2354 41.9399 55.8C42.1841 54.4654 42.6842 53.2455 43.4399 52.14C43.589 51.5167 43.469 50.9568 43.0799 50.46C43.04 49.98 42.9999 49.5 42.9599 49.02C42.5421 48.304 42.2221 47.5439 41.9999 46.74C41.7394 46.2187 41.4195 45.7387 41.0399 45.3C40.64 45.06 40.3199 44.74 40.0799 44.34C40.1546 43.6594 40.2746 42.9795 40.4399 42.3C40.7805 40.8829 40.2805 39.9029 38.9399 39.36C41.0997 39.3711 43.2597 39.3711 45.4199 39.36C45.8571 38.3279 46.3172 37.3079 46.7999 36.3C47.3435 38.8413 47.7835 41.4012 48.1199 43.98C48.4978 44.2035 48.9178 44.2835 49.3799 44.22C49.8902 40.0983 50.4101 35.9783 50.9399 31.86Z" fill="#35519A"/>
<path fill-rule="evenodd" clip-rule="evenodd" d="M37.1401 39.3C37.4827 39.1436 37.8427 39.1436 38.2201 39.3C38.1601 39.4657 38.0401 39.5456 37.8601 39.54C37.6085 39.4827 37.3685 39.4028 37.1401 39.3Z" fill="#6A3A6E"/>
<path opacity="0.997" fill-rule="evenodd" clip-rule="evenodd" d="M82.5 42.54C82.86 42.54 83.22 42.54 83.58 42.54C83.9145 42.6572 84.2745 42.6972 84.66 42.66C84.6888 44.0628 84.8088 45.4227 85.02 46.74C86.2882 46.8225 87.5682 46.9026 88.86 46.98C88.86 48.5799 88.86 50.18 88.86 51.78C87.46 51.78 86.0601 51.78 84.66 51.78C84.66 53.1399 84.66 54.5 84.66 55.86C83.02 55.86 81.3801 55.86 79.74 55.86C79.7794 54.4785 79.7394 53.1185 79.62 51.78C78.2601 51.78 76.9 51.78 75.54 51.78C75.54 50.1 75.54 48.42 75.54 46.74C76.9 46.74 78.2601 46.74 79.62 46.74C79.62 45.38 79.62 44.0199 79.62 42.66C80.6021 42.6991 81.5621 42.659 82.5 42.54Z" fill="#FDFDFE"/>
<path fill-rule="evenodd" clip-rule="evenodd" d="M85.0199 46.74C86.3461 46.6629 87.6262 46.7429 88.8599 46.98C87.5681 46.9026 86.2881 46.8226 85.0199 46.74Z" fill="#FDFDFE"/>
<path fill-rule="evenodd" clip-rule="evenodd" d="M79.62 51.78C79.7394 53.1185 79.7794 54.4786 79.74 55.86C81.38 55.86 83.02 55.86 84.66 55.86C83.0012 55.9795 81.3212 56.0195 79.62 55.98C79.62 54.58 79.62 53.18 79.62 51.78Z" fill="#8FA1C8"/>
<path fill-rule="evenodd" clip-rule="evenodd" d="M8.93994 58.5C10.2175 58.5851 11.4975 58.6451 12.7799 58.68C13.0243 58.98 13.0643 59.3 12.8999 59.64C11.8487 60.2956 10.8287 60.9955 9.83994 61.74C9.70415 61.5193 9.60415 61.2793 9.53994 61.02C10.3044 60.7009 10.4244 60.1808 9.89994 59.46C9.63082 59.3431 9.35082 59.303 9.05994 59.34C9.03905 59.0567 8.99905 58.7767 8.93994 58.5Z" fill="#FDFDFE"/>
<path fill-rule="evenodd" clip-rule="evenodd" d="M10.62 59.34C11.1017 59.3201 11.5817 59.3401 12.06 59.4C11.7 59.62 11.34 59.84 10.98 60.06C10.7699 59.8723 10.6499 59.6323 10.62 59.34Z" fill="#35519A"/>
<path fill-rule="evenodd" clip-rule="evenodd" d="M73.8601 60.9C74.1567 60.868 74.3567 60.988 74.4601 61.26C74.2048 61.7671 74.0248 62.2871 73.9201 62.82C74.1067 63.0618 74.3268 63.1018 74.5801 62.94C74.7767 62.4648 75.0167 62.0249 75.3001 61.62C75.5077 61.6831 75.6678 61.8031 75.7801 61.98C75.5472 62.4058 75.3473 62.8457 75.1801 63.3C75.3743 63.5179 75.6143 63.6779 75.9001 63.78C76.2279 63.2645 76.5079 62.7245 76.7401 62.16C77.0035 62.0746 77.2036 62.1546 77.3401 62.4C77.0274 63.2052 76.6674 63.9852 76.2601 64.74C75.1077 64.2837 73.9876 63.7637 72.9001 63.18C73.2569 62.4276 73.5768 61.6677 73.8601 60.9Z" fill="#FDFDFE"/>
<path fill-rule="evenodd" clip-rule="evenodd" d="M13.3799 61.02C13.4994 61.0097 13.5994 61.0497 13.6799 61.14C13.9799 61.82 14.2799 62.4999 14.5799 63.18C14.4581 63.5001 14.2581 63.5801 13.9799 63.42C13.7992 62.8986 13.5592 62.4186 13.2599 61.98C12.9741 62.0821 12.7341 62.2421 12.5399 62.46C12.7399 62.8599 12.9399 63.26 13.1399 63.66C12.9702 63.7949 12.7902 63.9149 12.5999 64.02C12.358 63.5363 12.118 63.0563 11.8799 62.58C11.4417 62.7789 11.0017 62.979 10.5599 63.18C10.2814 62.9868 10.1814 62.7468 10.2599 62.46C11.3395 62.0397 12.3795 61.5597 13.3799 61.02Z" fill="#FDFDFE"/>
<path fill-rule="evenodd" clip-rule="evenodd" d="M14.7 63.54C15.1069 64.0713 15.4869 64.6313 15.84 65.22C16.0447 66.4351 15.5446 66.9551 14.34 66.78C14.3578 66.9062 14.3379 67.0262 14.28 67.14C13.92 67.46 13.56 67.7799 13.2 68.1C13.0009 67.9419 12.8608 67.742 12.78 67.5C12.988 67.176 13.2681 66.936 13.62 66.78C13.7632 66.2629 13.6232 65.8229 13.2 65.46C12.804 65.6762 12.4239 65.9162 12.06 66.18C11.8366 66.0566 11.6766 65.8766 11.58 65.64C12.6486 64.9669 13.6886 64.2669 14.7 63.54Z" fill="#FDFDFE"/>
<path fill-rule="evenodd" clip-rule="evenodd" d="M72.4202 64.14C72.8201 64.14 73.2202 64.14 73.6202 64.14C73.6296 64.3116 73.5897 64.4717 73.5002 64.62C72.3218 64.6989 71.9817 65.2588 72.4802 66.3C72.9984 66.8921 73.6185 67.0721 74.3402 66.84C74.7585 66.43 74.7986 65.9901 74.4602 65.52C74.6682 64.8259 74.9283 64.806 75.2402 65.46C75.5264 66.2422 75.3464 66.9022 74.7002 67.44C73.3337 67.8669 72.3137 67.4469 71.6402 66.18C71.5022 65.9095 71.4621 65.6296 71.5202 65.34C71.7365 64.8628 72.0365 64.4627 72.4202 64.14Z" fill="#FDFDFE"/>
<path fill-rule="evenodd" clip-rule="evenodd" d="M14.4599 64.62C14.9947 64.8897 15.2148 65.3297 15.1199 65.94C14.8399 66.2601 14.5598 66.2601 14.2799 65.94C14.1542 65.6686 14.0143 65.4085 13.8599 65.16C14.045 64.9545 14.2449 64.7745 14.4599 64.62Z" fill="#35519A"/>
<path fill-rule="evenodd" clip-rule="evenodd" d="M16.38 66.54C16.7824 66.5466 16.9624 66.7466 16.92 67.14C15.9629 67.8369 15.0229 68.5569 14.1 69.3C13.9622 69.1021 13.8023 68.9221 13.62 68.76C14.5922 68.0753 15.5123 67.3353 16.38 66.54Z" fill="#FDFDFE"/>
<path fill-rule="evenodd" clip-rule="evenodd" d="M70.02 67.38C71.2715 67.844 72.5116 68.3441 73.74 68.88C73.5984 69.1075 73.4184 69.2875 73.2 69.42C72.9843 69.2995 72.7642 69.2395 72.54 69.24C72.2153 69.5245 71.9354 69.8444 71.7 70.2C72.1972 70.6099 72.1772 70.9899 71.64 71.34C70.9251 70.2501 70.225 69.1501 69.54 68.04C69.7158 67.8271 69.8758 67.607 70.02 67.38Z" fill="#FDFDFE"/>
<path fill-rule="evenodd" clip-rule="evenodd" d="M16.7402 67.98C18.2192 67.8791 18.9192 68.5591 18.8402 70.02C18.5439 70.497 18.284 70.4569 18.0602 69.9C18.3043 68.9638 17.9443 68.5838 16.9802 68.76C16.2132 69.0443 15.8333 69.5843 15.8402 70.38C16.0953 70.9076 16.4953 71.0677 17.0402 70.86C17.2532 70.9524 17.4332 71.0924 17.5802 71.28C16.8338 71.7233 16.1339 71.6633 15.4802 71.1C15.1953 70.5727 15.1153 70.0128 15.2402 69.42C15.6486 68.8314 16.1486 68.3514 16.7402 67.98Z" fill="#FDFDFE"/>
<path opacity="0.849" fill-rule="evenodd" clip-rule="evenodd" d="M82.8601 68.1C83.7738 67.9353 84.3337 68.2953 84.5401 69.18C84.4001 69.2199 84.2601 69.26 84.1201 69.3C83.7975 69.2152 83.5176 69.0553 83.2801 68.82C82.7166 69.2154 82.6166 69.7154 82.9801 70.32C83.2867 70.5296 83.5267 70.4497 83.7001 70.08C83.9801 69.9999 84.2601 69.9999 84.5401 70.08C84.2378 71.0312 83.5979 71.3511 82.6201 71.04C82.3423 70.9069 82.1623 70.6868 82.0801 70.38C81.9492 69.7083 82.0292 69.0684 82.3201 68.46C82.5183 68.3521 82.6983 68.2321 82.8601 68.1Z" fill="#35519A"/>
<path opacity="0.861" fill-rule="evenodd" clip-rule="evenodd" d="M85.7401 68.1C87.1505 68.0513 87.7304 68.7313 87.4801 70.14C87.1251 71.0574 86.4651 71.3574 85.5001 71.04C85.1544 70.8899 84.9344 70.6299 84.8401 70.26C84.5305 69.255 84.8305 68.535 85.7401 68.1ZM85.8601 68.82C86.6241 68.8646 86.8842 69.2647 86.6401 70.02C86.4207 70.4825 86.1207 70.5624 85.7401 70.26C85.418 69.7476 85.458 69.2676 85.8601 68.82Z" fill="#35519A"/>
<path opacity="0.817" fill-rule="evenodd" clip-rule="evenodd" d="M89.1001 68.1C89.5217 68.0251 89.8618 68.1451 90.1201 68.46C90.7237 67.949 91.2838 67.9891 91.8001 68.58C91.8601 69.419 91.8801 70.259 91.8601 71.1C91.5802 71.1 91.3001 71.1 91.0201 71.1C91.0401 70.3789 91.02 69.6589 90.9601 68.94C90.7276 68.7768 90.5277 68.8168 90.3601 69.06C90.3003 69.7388 90.2802 70.4189 90.3001 71.1C90.0202 71.1 89.7401 71.1 89.4601 71.1C89.4801 70.3789 89.46 69.6589 89.4001 68.94C89.2001 68.78 89.0002 68.78 88.8001 68.94C88.7403 69.6589 88.7202 70.3789 88.7401 71.1C88.4602 71.1 88.1801 71.1 87.9001 71.1C87.9001 70.14 87.9001 69.18 87.9001 68.22C88.2144 68.1878 88.5144 68.2278 88.8001 68.34C88.9195 68.2721 89.0195 68.192 89.1001 68.1Z" fill="#35519A"/>
<path fill-rule="evenodd" clip-rule="evenodd" d="M70.62 68.34C71.0574 68.5185 71.4974 68.6985 71.94 68.88C71.7179 69.0821 71.5178 69.3021 71.34 69.54C71.0458 69.1673 70.8058 68.7673 70.62 68.34Z" fill="#35519A"/>
<path opacity="0.765" fill-rule="evenodd" clip-rule="evenodd" d="M80.7 70.26C80.9799 70.26 81.26 70.26 81.54 70.26C81.54 70.54 81.54 70.82 81.54 71.1C81.26 71.1 80.9799 71.1 80.7 71.1C80.7 70.82 80.7 70.54 80.7 70.26Z" fill="#35519A"/>
<path fill-rule="evenodd" clip-rule="evenodd" d="M67.26 70.26C67.3486 70.2443 67.4287 70.2643 67.5 70.32C68.1178 71.0779 68.7979 71.778 69.54 72.42C69.9781 72.0419 70.3981 71.6419 70.8 71.22C70.9623 71.3622 71.1024 71.5223 71.22 71.7C70.6954 72.3448 70.0954 72.9047 69.42 73.38C68.601 72.545 67.781 71.705 66.96 70.86C66.9669 70.6278 67.0669 70.4278 67.26 70.26Z" fill="#FDFDFE"/>
<path fill-rule="evenodd" clip-rule="evenodd" d="M20.2199 70.62C20.621 70.6201 20.9011 70.8001 21.0599 71.16C20.6057 72.3637 20.1056 73.5437 19.5599 74.7C19.3232 74.6034 19.1432 74.4433 19.0199 74.22C19.1913 74.0003 19.2513 73.7603 19.1999 73.5C18.9799 73.2801 18.7598 73.06 18.5399 72.84C18.2307 72.7673 17.9507 72.8273 17.6999 73.02C17.4531 72.9543 17.2531 72.8143 17.0999 72.6C18.1679 71.967 19.2079 71.307 20.2199 70.62Z" fill="#FDFDFE"/>
<path fill-rule="evenodd" clip-rule="evenodd" d="M65.94 71.46C67.115 71.4952 67.615 72.0952 67.44 73.26C67.1149 73.6054 66.775 73.9253 66.42 74.22C66.66 74.5401 66.9 74.86 67.14 75.18C67.02 75.3801 66.86 75.54 66.66 75.66C65.854 74.6941 65.094 73.6941 64.38 72.66C64.9051 72.2535 65.4251 71.8534 65.94 71.46Z" fill="#FDFDFE"/>
<path fill-rule="evenodd" clip-rule="evenodd" d="M20.1001 71.46C20.1653 71.4672 20.2053 71.5072 20.2201 71.58C20.0002 72.0201 19.7801 72.46 19.5601 72.9C19.375 72.6747 19.155 72.4947 18.9001 72.36C19.3297 72.0868 19.7298 71.7868 20.1001 71.46Z" fill="#35519A"/>
<path fill-rule="evenodd" clip-rule="evenodd" d="M65.9401 72.18C66.415 72.1168 66.695 72.3168 66.7801 72.78C66.6272 73.1531 66.3673 73.433 66.0001 73.62C65.7801 73.34 65.56 73.06 65.3401 72.78C65.5674 72.6066 65.7673 72.4066 65.9401 72.18Z" fill="#35519A"/>
<path fill-rule="evenodd" clip-rule="evenodd" d="M23.22 72.9C23.6184 72.979 23.9385 73.179 24.18 73.5C23.8313 74.365 23.5713 75.2449 23.4 76.14C23.976 75.4438 24.5961 74.7838 25.26 74.16C25.6205 74.2409 25.9406 74.4209 26.22 74.7C25.59 75.7603 24.93 76.8003 24.24 77.82C24.0497 77.7149 23.8697 77.5949 23.7 77.46C24.1997 76.6577 24.6598 75.8577 25.08 75.06C24.4742 75.7913 23.8142 76.4712 23.1 77.1C22.8544 77.0178 22.6544 76.8779 22.5 76.68C22.8249 75.7744 23.1249 74.8744 23.4 73.98C22.9301 74.8002 22.4301 75.6003 21.9 76.38C21.6604 76.3217 21.5003 76.1817 21.42 75.96C22.0358 74.9485 22.6358 73.9285 23.22 72.9Z" fill="#FDFDFE"/>
<path fill-rule="evenodd" clip-rule="evenodd" d="M63.9 72.9C64.1514 72.9312 64.3114 73.0711 64.38 73.32C64.1038 73.5389 63.8238 73.759 63.54 73.98C64.106 74.8121 64.626 75.672 65.1 76.56C64.9564 76.7424 64.7764 76.8825 64.56 76.98C64.0036 76.0837 63.4236 75.2038 62.82 74.34C62.5681 74.5158 62.3081 74.6759 62.04 74.82C61.8343 74.7509 61.6943 74.6109 61.62 74.4C62.3879 73.8972 63.1478 73.3972 63.9 72.9Z" fill="#FDFDFE"/>
<path fill-rule="evenodd" clip-rule="evenodd" d="M61.2599 74.46C61.4859 74.5659 61.6459 74.7459 61.7399 75C61.1798 75.3201 60.6199 75.64 60.0599 75.96C60.1574 76.1764 60.2975 76.3564 60.4799 76.5C60.9199 76.3 61.3598 76.1001 61.7999 75.9C62.0215 75.9803 62.1615 76.1404 62.2199 76.38C61.7162 76.6513 61.2362 76.9513 60.7799 77.28C60.884 77.5482 61.004 77.8083 61.1399 78.06C61.6999 77.7801 62.2598 77.5 62.8199 77.22C62.9967 77.3323 63.1167 77.4924 63.1799 77.7C62.4608 78.201 61.6808 78.601 60.8399 78.9C60.2004 77.8615 59.6204 76.7815 59.0999 75.66C59.8273 75.2567 60.5473 74.8567 61.2599 74.46Z" fill="#FDFDFE"/>
<path fill-rule="evenodd" clip-rule="evenodd" d="M26.7001 74.94C27.5568 75.1682 28.3567 75.5282 29.1001 76.02C29.037 76.2276 28.917 76.3877 28.7401 76.5C28.2058 76.2929 27.6858 76.0529 27.1801 75.78C27.0299 75.9601 26.9099 76.1602 26.8201 76.38C27.1987 76.7083 27.6388 76.9483 28.1401 77.1C28.2937 77.3669 28.2538 77.6069 28.0201 77.82C27.5401 77.58 27.0601 77.34 26.5801 77.1C26.5098 77.1251 26.4498 77.1652 26.4001 77.22C26.3461 77.4623 26.2462 77.6822 26.1001 77.88C26.6304 78.1952 27.1704 78.4952 27.7201 78.78C27.795 79.0157 27.735 79.2157 27.5401 79.38C26.7066 79.0433 25.9067 78.6433 25.1401 78.18C25.6945 77.1115 26.2145 76.0315 26.7001 74.94Z" fill="#FDFDFE"/>
<path fill-rule="evenodd" clip-rule="evenodd" d="M58.2599 75.9C58.4009 75.8737 58.5209 75.9136 58.6199 76.02C58.3274 76.5963 58.1474 77.1963 58.0799 77.82C58.7231 78.3231 59.3831 78.8031 60.0599 79.26C59.8211 79.4247 59.561 79.5447 59.2799 79.62C58.7599 79.26 58.2398 78.9 57.7199 78.54C57.6066 78.6315 57.5466 78.7515 57.5399 78.9C57.642 79.3489 57.762 79.7889 57.8999 80.22C57.6296 80.3199 57.3696 80.3199 57.1199 80.22C56.7464 79.0992 56.3264 77.9992 55.8599 76.92C56.1081 76.7372 56.3882 76.6371 56.6999 76.62C56.7687 77.079 56.9088 77.5189 57.1199 77.94C57.3363 77.3304 57.5763 76.7304 57.8399 76.14C57.9961 76.0698 58.1361 75.9898 58.2599 75.9Z" fill="#FDFDFE"/>
<path fill-rule="evenodd" clip-rule="evenodd" d="M29.58 76.26C32.1996 76.6468 32.7196 77.9068 31.14 80.04C30.7343 80.3094 30.2942 80.3894 29.82 80.28C29.3017 80.1152 28.8217 79.8953 28.38 79.62C28.782 78.4969 29.182 77.377 29.58 76.26Z" fill="#FDFDFE"/>
<path fill-rule="evenodd" clip-rule="evenodd" d="M30.0601 77.1C30.3974 77.1391 30.7174 77.2391 31.0201 77.4C31.3106 78.0305 31.2506 78.6504 30.8401 79.26C30.4396 79.6764 29.9797 79.7364 29.4601 79.44C29.3974 79.3727 29.3575 79.2926 29.3401 79.2C29.5692 78.4927 29.8092 77.7927 30.0601 77.1Z" fill="#35519A"/>
<path fill-rule="evenodd" clip-rule="evenodd" d="M32.8199 77.22C33.0907 77.2754 33.3307 77.3954 33.5399 77.58C33.2195 78.743 32.8994 79.9031 32.5799 81.06C32.3399 81.02 32.0999 80.98 31.8599 80.94C32.1307 79.6874 32.4507 78.4474 32.8199 77.22Z" fill="#FDFDFE"/>
<path fill-rule="evenodd" clip-rule="evenodd" d="M54.06 77.34C55.3642 77.3013 55.8041 77.8812 55.38 79.08C55.52 79.2201 55.66 79.36 55.8 79.5C55.935 79.9068 56.115 80.2869 56.34 80.64C56.1049 80.7517 55.8649 80.8517 55.62 80.94C55.3702 80.6218 55.2102 80.2618 55.14 79.86C54.7422 79.7337 54.3422 79.7337 53.94 79.86C54.0451 80.3355 54.125 80.8155 54.18 81.3C53.94 81.34 53.7 81.3801 53.46 81.42C53.2332 80.2326 52.9132 79.0726 52.5 77.94C53.0083 77.6841 53.5283 77.4841 54.06 77.34Z" fill="#FDFDFE"/>
<path fill-rule="evenodd" clip-rule="evenodd" d="M34.7401 77.82C35.5824 77.7132 36.2424 77.9933 36.7201 78.66C36.7795 78.8968 36.7996 79.1368 36.7801 79.38C36.5401 79.38 36.3001 79.38 36.0601 79.38C36.002 78.6246 35.6021 78.3647 34.8601 78.6C34.3177 79.1595 34.1377 79.8195 34.3201 80.58C34.5434 81.0009 34.8835 81.1408 35.3401 81C35.5478 80.8044 35.7878 80.6644 36.0601 80.58C36.5088 80.5645 36.6088 80.7245 36.3601 81.06C35.4892 82.0119 34.6092 82.0119 33.7201 81.06C33.237 79.6902 33.577 78.6102 34.7401 77.82Z" fill="#FDFDFE"/>
<path fill-rule="evenodd" clip-rule="evenodd" d="M54.0601 78.06C54.6603 77.9605 54.9203 78.2005 54.8401 78.78C53.9095 79.5828 53.4495 79.3829 53.4601 78.18C53.6899 78.2141 53.8899 78.1741 54.0601 78.06Z" fill="#35519A"/>
<path fill-rule="evenodd" clip-rule="evenodd" d="M50.22 78.18C50.495 78.1493 50.7551 78.1892 51 78.3C51.58 79.38 52.16 80.46 52.74 81.54C52.5762 81.6547 52.3962 81.7346 52.2 81.78C51.9536 81.57 51.7337 81.33 51.54 81.06C51.2269 81.1476 50.9069 81.2076 50.58 81.24C50.3881 81.4543 50.288 81.7144 50.28 82.02C50.0658 82.1088 49.8458 82.1888 49.62 82.26C49.58 82.14 49.54 82.02 49.5 81.9C49.6722 80.638 49.9122 79.398 50.22 78.18Z" fill="#FDFDFE"/>
<path fill-rule="evenodd" clip-rule="evenodd" d="M38.4599 78.54C38.7799 78.54 39.0999 78.54 39.4199 78.54C39.6099 79.8697 39.8499 81.1897 40.1399 82.5C39.4769 82.5797 39.157 82.2797 39.1799 81.6C38.7393 81.4458 38.2992 81.4257 37.8599 81.54C37.6793 82.0838 37.3193 82.2438 36.7799 82.02C37.3743 80.8715 37.9342 79.7114 38.4599 78.54Z" fill="#FDFDFE"/>
<path fill-rule="evenodd" clip-rule="evenodd" d="M48.4201 78.54C48.5767 78.7676 48.6566 79.0477 48.6601 79.38C48.7279 80.382 48.8079 81.3819 48.9001 82.38C48.6601 82.38 48.4201 82.38 48.1801 82.38C48.1178 81.3807 48.0578 80.3808 48.0001 79.38C47.8349 80.4165 47.6949 81.4565 47.5801 82.5C47.3001 82.5 47.02 82.5 46.7401 82.5C46.5178 81.4927 46.2578 80.4926 45.9601 79.5C46.0323 80.5358 46.0923 81.5759 46.1401 82.62C45.9001 82.62 45.6601 82.62 45.4201 82.62C45.3584 81.3387 45.2785 80.0587 45.1801 78.78C45.5733 78.7459 45.9532 78.7859 46.3201 78.9C46.5601 79.7 46.8001 80.4999 47.0401 81.3C47.2949 80.4399 47.4349 79.56 47.4601 78.66C47.8063 78.6967 48.1263 78.6567 48.4201 78.54Z" fill="#FDFDFE"/>
<path fill-rule="evenodd" clip-rule="evenodd" d="M41.6999 80.58C41.582 80.9954 41.5421 81.4355 41.5799 81.9C41.8199 81.9 42.0599 81.9 42.2999 81.9C42.6599 81.9 43.0199 81.9 43.3799 81.9C43.3799 82.14 43.3799 82.38 43.3799 82.62C42.5411 82.5601 41.7011 82.5201 40.8599 82.5C40.8998 81.2199 40.9399 79.94 40.9799 78.66C41.2199 78.66 41.4599 78.66 41.6999 78.66C41.6999 79.2999 41.6999 79.94 41.6999 80.58Z" fill="#FDFDFE"/>
<path fill-rule="evenodd" clip-rule="evenodd" d="M50.58 79.14C50.8772 79.4926 51.1172 79.8925 51.3 80.34C51.047 80.5133 50.767 80.5932 50.46 80.58C50.5394 80.1041 50.5794 79.6241 50.58 79.14Z" fill="#35519A"/>
<path fill-rule="evenodd" clip-rule="evenodd" d="M38.7001 79.62C38.7741 79.6333 38.8341 79.6733 38.8801 79.74C38.9792 80.1352 39.0392 80.5351 39.0601 80.94C38.7649 80.9161 38.4849 80.8362 38.2201 80.7C38.4147 80.3511 38.5748 79.9911 38.7001 79.62Z" fill="#35519A"/>
<path fill-rule="evenodd" clip-rule="evenodd" d="M41.7001 80.58C41.7001 80.98 41.7001 81.3801 41.7001 81.78C41.9299 81.7459 42.1298 81.7859 42.3001 81.9C42.0601 81.9 41.8201 81.9 41.5801 81.9C41.5423 81.4355 41.5822 80.9955 41.7001 80.58Z" fill="#6E84B7"/>
<path fill-rule="evenodd" clip-rule="evenodd" d="M38.1002 82.74C38.2926 82.7174 38.4527 82.7774 38.5802 82.92C37.6433 84.0237 37.3633 85.2837 37.7402 86.7C37.5453 86.7168 37.4054 86.6367 37.3202 86.46C36.7345 85.0358 36.9945 83.7959 38.1002 82.74Z" fill="#FDFDFE"/>
<path fill-rule="evenodd" clip-rule="evenodd" d="M39.5401 83.1C39.8151 83.0693 40.0752 83.1092 40.3201 83.22C40.5138 84.2599 40.6938 85.3 40.8601 86.34C40.6601 86.34 40.4601 86.34 40.2601 86.34C40.2601 86.1 40.2601 85.86 40.2601 85.62C39.8592 85.5594 39.4592 85.5394 39.0601 85.56C38.9083 86.0983 38.6282 86.1984 38.2201 85.86C38.6942 84.952 39.1341 84.0319 39.5401 83.1Z" fill="#FDFDFE"/>
<path fill-rule="evenodd" clip-rule="evenodd" d="M47.3401 83.34C47.5062 83.1839 47.6862 83.1839 47.8801 83.34C48.7732 84.4969 48.8932 85.7369 48.2401 87.06C48.1188 87.1604 47.9787 87.2004 47.8201 87.18C48.0418 86.3131 48.1018 85.433 48.0001 84.54C47.8698 84.0785 47.6498 83.6784 47.3401 83.34Z" fill="#FDFDFE"/>
<path fill-rule="evenodd" clip-rule="evenodd" d="M43.74 86.1C43.878 85.5221 43.8979 84.9221 43.8 84.3C43.6789 84.483 43.6189 84.683 43.62 84.9C43.4438 85.4047 43.3238 85.9247 43.26 86.46C43.0239 86.4887 42.8038 86.4487 42.6 86.34C42.288 83.6443 42.108 83.6843 42.06 86.46C41.9 86.46 41.7399 86.46 41.58 86.46C41.58 85.42 41.58 84.38 41.58 83.34C41.9096 83.3024 42.2296 83.3424 42.54 83.46C42.6418 84.1861 42.7819 84.9061 42.96 85.62C43.178 84.9078 43.358 84.1878 43.5 83.46C43.82 83.46 44.1399 83.46 44.46 83.46C44.3934 84.4586 44.3534 85.4587 44.34 86.46C44.1399 86.46 43.94 86.46 43.74 86.46C43.74 86.34 43.74 86.22 43.74 86.1Z" fill="#FDFDFE"/>
<path fill-rule="evenodd" clip-rule="evenodd" d="M45.5399 83.34C47.1019 83.2083 47.5419 83.8284 46.8599 85.2C46.4774 85.3579 46.0773 85.4179 45.6599 85.38C45.6599 85.74 45.6599 86.1 45.6599 86.46C45.4599 86.46 45.26 86.46 45.0599 86.46C45.0139 85.4603 44.9738 84.4603 44.9399 83.46C45.1697 83.4941 45.3697 83.4541 45.5399 83.34Z" fill="#FDFDFE"/>
<path fill-rule="evenodd" clip-rule="evenodd" d="M45.54 83.94C45.8625 83.9203 46.1825 83.9404 46.5 84C46.66 84.24 46.66 84.48 46.5 84.72C46.1825 84.7796 45.8625 84.7997 45.54 84.78C45.54 84.5 45.54 84.22 45.54 83.94Z" fill="#35519A"/>
<path fill-rule="evenodd" clip-rule="evenodd" d="M39.78 83.94C39.9496 84.2663 40.0296 84.6263 40.02 85.02C39.82 85.02 39.6201 85.02 39.42 85.02C39.5056 84.6487 39.6256 84.2887 39.78 83.94Z" fill="#35519A"/>
<path fill-rule="evenodd" clip-rule="evenodd" d="M43.74 86.1C43.7776 85.675 43.7375 85.275 43.62 84.9C43.6189 84.6831 43.6789 84.483 43.8 84.3C43.8979 84.9221 43.878 85.5221 43.74 86.1Z" fill="#697EB4"/>
</svg>
