<svg width="44" height="43" viewBox="0 0 44 43" fill="none" xmlns="http://www.w3.org/2000/svg">
<g clip-path="url(#clip0_426_2477)">
<path d="M31.3802 16.2349C30.7068 16.5328 29.9927 16.7284 29.2615 16.8153C30.0322 16.3544 30.609 15.6289 30.8845 14.7742C30.1612 15.2047 29.3683 15.5063 28.5418 15.6695C27.9866 15.0755 27.2508 14.6816 26.4486 14.5489C25.6465 14.4163 24.823 14.5524 24.1062 14.936C23.3894 15.3197 22.8194 15.9294 22.4848 16.6705C22.1503 17.4115 22.0699 18.2423 22.2563 19.0337C20.7895 18.9601 19.3546 18.579 18.0447 17.9149C16.7349 17.2509 15.5793 16.3187 14.653 15.1791C14.3251 15.7422 14.1528 16.3824 14.1538 17.034C14.1538 18.313 14.8047 19.4429 15.7944 20.1045C15.2087 20.086 14.6359 19.9279 14.1238 19.6432V19.689C14.1239 20.5408 14.4187 21.3663 14.9581 22.0256C15.4974 22.6849 16.2482 23.1374 17.083 23.3063C16.5394 23.4536 15.9693 23.4754 15.416 23.3698C15.6514 24.103 16.1102 24.7442 16.7281 25.2037C17.3461 25.6632 18.0922 25.9179 18.8621 25.9322C18.097 26.5331 17.2208 26.9774 16.2838 27.2395C15.3468 27.5017 14.3673 27.5765 13.4014 27.4599C15.0876 28.5443 17.0505 29.12 19.0553 29.1181C25.8409 29.1181 29.5517 23.4968 29.5517 18.6217C29.5517 18.463 29.5473 18.3024 29.5403 18.1454C30.2625 17.6234 30.8859 16.9767 31.3811 16.2358L31.3802 16.2349Z" fill="white"/>
</g>
<rect opacity="0.1" x="0.586182" width="43" height="43" rx="13.2308" fill="white"/>
<defs>
<clipPath id="clip0_426_2477">
<rect width="21.1692" height="21.1692" fill="white" transform="translate(11.8323 11.2461)"/>
</clipPath>
</defs>
</svg>
