<svg width="44" height="43" viewBox="0 0 44 43" fill="none" xmlns="http://www.w3.org/2000/svg">
<g clip-path="url(#clip0_426_2478)">
<path d="M30.6964 16.9778C31.0995 18.5496 31.0995 21.8308 31.0995 21.8308C31.0995 21.8308 31.0995 25.1121 30.6964 26.6839C30.4724 27.5527 29.817 28.2363 28.987 28.4674C27.4796 28.8872 22.279 28.8872 22.279 28.8872C22.279 28.8872 17.0811 28.8872 15.571 28.4674C14.7375 28.2328 14.083 27.55 13.8616 26.6839C13.4585 25.1121 13.4585 21.8308 13.4585 21.8308C13.4585 21.8308 13.4585 18.5496 13.8616 16.9778C14.0856 16.109 14.741 15.4254 15.571 15.1943C17.0811 14.7744 22.279 14.7744 22.279 14.7744C22.279 14.7744 27.4796 14.7744 28.987 15.1943C29.8205 15.4289 30.475 16.1116 30.6964 16.9778ZM20.5149 24.918L25.8072 21.8308L20.5149 18.7436V24.918Z" fill="white"/>
</g>
<rect opacity="0.1" x="0.448242" width="43" height="43" rx="13.2308" fill="white"/>
<defs>
<clipPath id="clip0_426_2478">
<rect width="21.1692" height="21.1692" fill="white" transform="translate(11.6943 11.2461)"/>
</clipPath>
</defs>
</svg>
